Patient4_TMGait_0pt3_02_left_26_EMG.mot
version=1
nRows=23
nColumns=33
inDegrees=no
endheader
time	1LAddLong	2LGlutMax	3LGlutMed	4LIliopsoas	5LSemiMemb	6LBicFemLong	7LRecFem	8LVastMed	9LVastLat	10LGasMed	11LTibAnt	12lTibPost	13LPeroneusLong	14LSol	15LExtDigLong	16LFlexDigLong	17RAddLong	18RGlutMax	19RGlutMed	20RIliopsoas	21RSemiMemb	22RBicFemLong	23RRecFem	24RVastMed	25RVastLat	26RGasMed	27RTibAnt	28RTibPost	29RPeroneusLong	30RSol	31RExtDigLong	32RFlexDigLong
51.625	-0.005035	-0.03006	-0.039825	-0.008698	-0.025787	0.044861	0.023499	-0.005951	-0.007324	0.039215	-0.010681	0.00061	0.67917	0.00946	0.025024	-0.000763	-0.007172	0.04303	0.40146	0.002289	0.043793	-0.049896	0.23636	0.15106	-0.097809	0.009613	0.15656	-0.008087	-0.039825	-0.20615	-0.020447	-0.003357
51.626	-0.00473	-0.030975	-0.014496	0.004578	0.016785	-0.020905	0.003052	-0.000763	0.009918	-0.008698	0.012207	-0.001373	0.095978	0.057983	0.057678	0.007629	0.007629	-0.022736	0.29984	-0.016785	0.052643	0.026398	0.25452	0.028381	-0.11597	0.008545	-0.023651	-0.005035	-0.032654	-0.089722	-0.021362	0.001831
51.627	-0.006866	-0.058746	0.038605	0.001221	-0.010071	0.047607	-0.010529	0.001373	0.017395	0.072021	0.026855	-0.002594	0.024414	-0.065918	-0.026245	-0.011902	0.003967	-0.042114	0.23086	-0.055389	-0.030518	0.081024	0.031281	-0.040588	-0.075989	0.002289	-0.030518	-0.005188	0.11169	0.007782	-0.019531	-0.005035
51.628	-0.003662	-0.062103	0.016479	0.009155	0.002747	0.1564	-0.008087	0.003967	0.024872	0.13901	0.020447	-0.000153	-0.071564	-0.121	-0.045013	0.000153	-0.004883	-0.075073	0.1239	-0.064087	-0.033112	0.10269	-0.094604	-0.015717	0.14191	0.001221	-0.11017	-0.009918	0.025177	0.12711	-0.021362	-0.005341
51.629	0.00351	-0.042725	-0.007019	0.007935	-0.005188	0.25406	-0.024109	0.002136	0.051727	0.15976	0.023041	-0.000763	-0.13062	-0.052185	0.00412	0.011597	-0.006561	-0.12955	0.033112	-0.063782	-0.007629	0.094604	-0.015106	0.016785	0.18173	0.001831	-0.050507	-0.008545	-0.1648	0.11047	-0.017395	-0.008545
51.63	-0.009003	-0.027161	-0.001526	0.008392	-0.031891	0.27023	-0.000153	0.006714	0.077515	0.096741	0.00473	0.00351	0.19165	0.024567	0.020447	0.00946	0.005493	-0.10819	0.051117	-0.039368	0.05127	0.06897	0.048065	-0.060272	0.10422	-0.001373	0.078278	-0.005646	0.058594	0.03418	-0.019226	-0.00824
51.631	-0.024109	-0.020599	0.013275	0.006561	-0.071716	0.2803	-0.017853	0.009308	0.068665	0.072174	-0.01709	0.003357	-0.18143	0.016327	-0.06073	0.011749	0.020294	-0.13214	0.12589	-0.002594	0.024719	0.052185	0.036163	-0.044708	0.070038	-0.004578	-0.050354	-0.00412	0.08194	-0.14893	-0.020142	-0.013733
51.632	-0.019073	0.000305	-0.036316	0.00885	-0.041809	0.2327	0.001221	0.009766	0.065155	0.10895	0.007477	-0.001678	-0.67871	-0.026855	-0.097198	0.010529	0.041962	-0.097351	0.095215	-0.016937	0.05722	-0.06073	0.092773	-0.035553	0.064087	-0.001068	-0.033569	-0.007477	0.18127	-0.13229	-0.016479	-0.016785
51.633	-0.02243	-0.018616	-0.049286	0.004425	0.017548	0.20294	-0.001526	0.0177	0.076752	0.077209	-0.00351	0.001221	-0.075836	0.06012	-0.090179	0.019836	0.051117	-0.12177	0.072479	0.018463	0.0383	-0.098572	0.072784	-0.063019	0.036621	0.004272	0.028687	-0.009155	0.2858	-0.046997	-0.018616	-0.020447
51.634	0.005951	-0.031738	-0.001984	0.005188	0.022125	0.086975	-0.019989	0.010834	0.095978	0.083008	0.010986	0.00412	-0.32303	0.050049	-0.055237	-0.011902	0.016022	-0.10895	0.015717	0.032654	-0.11459	-0.052948	0.089569	-0.063782	0.039978	0.007629	0.07431	-0.010376	0.14526	-0.002747	-0.02243	-0.021973
51.635	0.010376	-0.013733	0.002441	0.009613	0.013123	-0.19394	0.011902	0.013428	0.038605	0.0383	0.009766	0.006714	-0.24414	-0.066528	-0.061646	0.003662	0.027771	-0.17853	0.019073	0.008698	-0.07843	-0.023804	0.12375	-0.027771	0.007172	-0.001221	0.11368	-0.013428	-0.044403	0.11627	-0.022888	-0.023804
51.636	-0.018005	-0.017548	0.03479	0.017548	0.045624	-0.20325	0.033722	0.018616	-0.045166	-0.030823	-0.013428	0.003204	0.25543	-0.12833	-0.032196	0.014191	0.06485	-0.13992	-0.039063	-0.017548	-0.077209	-0.067749	0.075226	-0.057526	0.037231	-0.001831	0.067902	-0.014954	-0.37552	0.14832	-0.020142	-0.021973
51.637	-0.018921	-0.02243	0.12589	0.003052	0	-0.17044	0.079346	0.01236	-0.022583	0.025787	-0.010834	0.002899	0.08316	-0.11322	-0.025635	0.010376	0.071716	-0.12222	-0.079041	-0.005493	0.012665	-0.08606	0.092468	-0.079498	0.018921	0.010071	0.00351	-0.036469	-0.23117	0.13565	-0.023041	-0.022583
51.638	-0.028534	-0.070343	0.050354	0.000153	-0.083466	-0.26581	0.094299	0.006866	-0.010681	0.13489	-0.001373	0.005951	0.18021	-0.074463	0.032349	0.006714	0.033264	-0.10422	-0.06958	-0.022888	0.043182	-0.1297	0.039673	-0.034637	0.035095	0.005646	0.019836	-0.071411	0.048676	-0.087433	-0.021057	-0.017548
51.639	-0.022736	-0.044403	0.039368	-0.00473	-0.10147	-0.14389	0.03952	-0.009003	0.000916	0.13672	-0.010376	0.008087	0.072937	0.041046	0.072021	0.010223	0.016785	0.017853	-0.15671	-0.04776	-0.088806	-0.019073	0.080261	-0.021515	0.030823	-0.001526	0.021515	-0.1944	0.21606	-0.16708	-0.0177	-0.02533
51.64	0.001373	-0.085602	0.024567	0.01236	-0.068359	-0.13245	-0.014343	-0.011444	0.041199	0.070343	-0.015564	0.006256	-0.021973	-0.026398	0.037079	0.014496	0.046234	-0.069885	-0.16083	-0.089874	-0.12833	0.048676	0.10941	-0.057068	0.019531	-0.025024	0.034485	0.022736	0.10773	-0.093231	-0.016785	-0.021667
51.641	0.005341	-0.061188	-0.001526	0.000153	0.072632	-0.28549	0.036163	-0.013885	0.044403	0.003052	-0.006714	0.016022	-0.095215	-0.16769	0.027466	0.007935	0.050812	-0.004578	-0.22339	-0.094604	0.020905	0.025482	0.1503	-0.004578	0.002594	-0.050659	0.042572	0.34134	0.11505	-0.14725	-0.018768	-0.016785
51.642	0.00473	-0.087433	-0.009613	0.000153	0.10315	-0.26932	0.019684	-0.003815	0.016479	-0.02655	0.005646	0.015564	0.082703	-0.33157	-0.016174	0.008392	0.036469	-0.085754	-0.27512	0.067596	-0.086517	0.059357	0.10086	0.029449	0.027618	-0.037994	0.038147	0.1535	-0.021667	0.14694	-0.018921	-0.00885
51.643	-0.00351	-0.11704	0.000916	0.011597	0.036926	-0.075836	0.031433	0.011139	-0.009918	-0.02594	0.00885	0.008087	0.23712	-0.13138	-0.042114	-0.001984	0.023804	-0.11444	-0.19638	0.21683	-0.03952	-0.003052	0.14114	-0.018005	0.00351	-0.021057	0.026855	-0.068512	-0.10361	0.41107	-0.018158	-0.013123
51.644	-0.008392	-0.077362	-0.034485	0.023041	-0.00473	0.001831	0.026093	0.010529	-0.028992	0.031433	-0.000153	0	0.103	-0.028687	-0.059052	0.011597	0.008087	-0.1033	-0.055389	0.11658	-0.050812	0.080414	0.15106	-0.025177	-0.000916	-0.009766	0.031891	-0.002136	-0.25589	0.54077	-0.021973	-0.00061
51.645	-0.00473	-0.056458	-0.024872	0.003662	0.00473	0.034332	0.020752	0.008698	-0.019836	0.076752	0.007782	-0.001831	-0.092163	-0.071716	-0.036774	-0.011749	-0.020447	-0.11185	-0.096436	-0.016479	-0.11505	0.15823	0.13748	0.045166	0.015259	-0.001373	0.067902	0.085297	-0.16525	0.4895	-0.018921	0.000153
51.646	0.019226	0.007172	0.007324	0.013733	0.005798	0.077972	-0.022736	0.000458	-0.011597	-0.028992	0.002594	0.005646	-0.11032	-0.056152	0.056915	-0.01358	-0.023346	-0.053406	-0.1651	-0.077362	-0.00885	0.21622	0.14847	0.033417	-0.002441	0.005798	0.10086	0.093536	0.064087	0.27435	-0.018158	-0.006256
51.647	0.040741	-0.007477	0.020447	-0.003815	0.027008	0.058441	-0.034637	-0.010376	0.013275	-0.12619	-0.00885	-0.001068	-0.04425	-0.063324	0.083618	0.001373	-0.022583	-0.066681	-0.19302	-0.019989	0.025787	0.22812	0.12528	-0.042419	-0.007172	0.001526	0.11856	-0.060425	0.002289	-0.18723	-0.020142	-0.00412
